HIERARCHY
ROOT pelvis
{
  OFFSET 0 100 0
  CHANNELS 6 Xposition Yposition Zposition Zrotation Xrotation Yrotation
  JOINT pelvis_right_femur
  {
    OFFSET -10.78128 -3.44521 -0.5502486
    CHANNELS 3 Zrotation Xrotation Yrotation
    JOINT right_femur_tibia
    {
      OFFSET -0.8047443 -44.0398 -0.1307829
      CHANNELS 3 Zrotation Xrotation Yrotation
      JOINT right_tibia_foot
      {
        OFFSET 3.006224 -47.83518 -5
        CHANNELS 3 Zrotation Xrotation Yrotation
        End Site
        {
          OFFSET 0 -5 15
        }
      }
    }
  }
  JOINT pelvis_left_femur
  {
    OFFSET 10.78128 -3.44521 -0.5502486
    CHANNELS 3 Zrotation Xrotation Yrotation
    JOINT left_femur_tibia
    {
      OFFSET 0.8047443 -44.0398 -0.1307829
      CHANNELS 3 Zrotation Xrotation Yrotation
      JOINT left_tibia_foot
      {
        OFFSET -4.370144 -48.10324 -4.275266
        CHANNELS 3 Zrotation Xrotation Yrotation
        End Site
        {
          OFFSET 0 -5 15
        }
      }
    }
  }
  JOINT pelvis_spine1
  {
    OFFSET 0 6.468898 -3.129235
    CHANNELS 3 Zrotation Xrotation Yrotation
    JOINT spine1
    {
      OFFSET 0 23.15396 4.99043
      CHANNELS 3 Zrotation Xrotation Yrotation
      JOINT spine2
      {
        OFFSET 0 20.79997 -5.064912
        CHANNELS 3 Zrotation Xrotation Yrotation
        JOINT neck
        {
          OFFSET 0 14.38658 9.616178
          CHANNELS 3 Zrotation Xrotation Yrotation
          End Site
          {
            OFFSET 0 20 0
          }
        }
      }
      JOINT right_manubrium
      {
        OFFSET -5.722621 16.35077 3.967754
        CHANNELS 3 Zrotation Xrotation Yrotation
        JOINT right_clavicle
        {
          OFFSET -13.16364 1.694482 -4.693211
          CHANNELS 3 Zrotation Xrotation Yrotation
          JOINT right_humerus
          {
            OFFSET -28.5034 -0.3100689 -2.792744
            CHANNELS 3 Zrotation Xrotation Yrotation
            JOINT right_radius
            {
              OFFSET -25.15693 0.02248979 -1.271978
              CHANNELS 3 Zrotation Xrotation Yrotation
              End Site
              {
                OFFSET -15 0 0
              }
            }
          }
        }
      }
      JOINT left_manubrium
      {
        OFFSET 5.722621 16.35077 3.967754
        CHANNELS 3 Zrotation Xrotation Yrotation
        JOINT left_clavicle
        {
          OFFSET 13.16364 1.694482 -4.693211
          CHANNELS 3 Zrotation Xrotation Yrotation
          JOINT left_humerus
          {
            OFFSET 29.39168 -1.063119 -2.237045
            CHANNELS 3 Zrotation Xrotation Yrotation
            JOINT left_radius
            {
              OFFSET 24.59957 -0.9528479 0.9047498
              CHANNELS 3 Zrotation Xrotation Yrotation
              End Site
              {
                OFFSET 15 -0 -0
              }
            }
          }
        }
      }
    }
  }
}
MOTION
Frames: 7
Frame Time: 0.0416666666667
514.5406 107.2875 3132.383 3.59857 -5.823726 12.48929 -1.095796 4.887629 5.039768 -0 53.95779 -0 2.989189 4.934105 -5.176587 -5.433075 -10.46088 -7.576208 -0 21.43632 -0 -1.374367 -10.162 16.77978 3.505269 -4.218187 7.327071 -0.303363 15.37959 -9.846326 2.945041 18.68677 6.376932 1.825406 -27.53885 11.93249 -5.943731 -25.21065 10.40389 101.136 18.15977 -27.88427 -0 0 15.64419 -14.41692 13.47105 1.919377 11.31793 -28.17239 1.052243 -88.74778 17.09421 17.01638 0 0 -27.7782 22.84995 14.3792 -12.44018
516.7669 108.501 3137.963 3.271181 -6.321206 13.69537 -0.452606 -2.797705 4.384587 -0 55.96502 -0 1.869442 4.638064 -6.25913 -5.488839 -4.684706 -7.829432 -0 19.3222 -0 -0.8765859 -11.46053 15.97033 3.779446 -4.327773 6.956158 0.04343338 15.0891 -10.41271 3.013732 18.44415 6.979739 2.242798 -28.91541 12.68499 -6.531114 -24.25853 10.1394 102.6548 17.41872 -30.33378 -0 0 13.26111 -13.63539 13.43843 0.529747 12.12153 -29.03777 1.45376 -88.23543 17.37643 15.15412 0 0 -30.27441 24.36526 14.27488 -13.80369
518.7833 109.2737 3143.135 2.857535 -6.458032 14.83039 0.1882459 -9.82524 3.600777 -0 52.37562 -0 0.8664391 3.030169 -7.039953 -5.309801 0.4900095 -8.097189 -0 16.65981 -0 -1.344313 -13.46268 15.34321 4.078489 -4.483738 6.580821 0.4304419 14.66134 -11.01524 3.107831 18.06148 7.631715 2.751316 -30.46852 13.53603 -7.141895 -23.28059 9.819 104.1219 16.69496 -32.83901 -0 0 10.90619 -12.73135 13.49243 -0.9756214 13.12146 -29.93086 2.033984 -87.73263 17.66391 13.19199 0 0 -33.07774 25.99258 14.09247 -15.28311
520.6467 109.4055 3148.194 2.639776 -6.20216 15.82651 0.4908689 -15.49608 2.657441 -0 44.24021 -0 0.37508 1.286386 -7.594005 -5.170075 4.956495 -8.210778 -0 14.25345 -0 -2.261502 -15.82749 14.71221 4.378112 -4.676059 6.237972 0.8198542 14.1341 -11.59693 3.223402 17.55698 8.276956 3.319518 -32.06143 14.42102 -7.709231 -22.37643 9.46959 105.3964 16.07735 -35.17343 -0 0 8.825173 -11.78044 13.64345 -2.462526 14.24164 -30.76123 2.752513 -87.30253 17.91914 11.33928 0 0 -35.90829 27.58661 13.8415 -16.74693
522.4287 108.8998 3153.401 2.651169 -5.668734 16.67284 0.457609 -19.80974 1.64298 -0 34.10317 -0 0.3980317 0.00219398 -7.976427 -5.18502 8.804353 -8.116927 -0 12.79355 -0 -3.169545 -18.02008 13.99102 4.647048 -4.881425 5.957348 1.169345 13.5782 -12.10361 3.348032 16.98076 8.866952 3.906796 -33.52852 15.25836 -8.149227 -21.61503 9.127391 106.3739 15.6565 -37.15926 -0 0 7.196819 -10.86136 13.86907 -3.802228 15.37486 -31.45388 3.528808 -86.99236 18.11059 9.774853 0 0 -38.45514 29.00694 13.53826 -18.05543
524.1928 107.9196 3158.915 2.747248 -5.049701 17.37449 0.3744794 -22.9958 0.8343503 -0 24.57047 -0 0.6965435 -0.674698 -8.262334 -5.292986 12.08303 -7.857271 -0 12.76487 -0 -3.843292 -19.589 13.28707 4.852883 -5.070022 5.754553 1.444768 13.0744 -12.49559 3.463488 16.40025 9.365227 4.465586 -34.71272 15.96113 -8.382343 -21.02678 8.82981 106.9964 15.49919 -38.68707 -0 0 6.106618 -10.04296 14.12462 -4.88976 16.40453 -31.96272 4.261643 -86.82199 18.2194 8.611524 0 0 -40.45205 30.1373 13.2043 -19.08313
525.9779 106.7103 3164.811 2.783295 -4.52761 17.93929 0.5468423 -25.15667 0.5071417 -0 17.27303 -0 1.029101 -0.8309912 -8.525223 -5.367012 14.76169 -7.503473 -0 14.40669 -0 -4.296463 -20.27279 12.73286 4.97038 -5.214507 5.630542 1.628308 12.68679 -12.75295 3.55127 15.88255 9.747719 4.946977 -35.50416 16.45601 -8.361328 -20.61114 8.606802 107.2528 15.6299 -39.71229 -0 0 5.551702 -9.376381 14.35978 -5.657217 17.2296 -32.27209 4.857674 -86.78342 18.24227 7.886753 0 0 -41.73606 30.90147 12.86613 -19.74462
